<?xml version="1.0" encoding="UTF-8"?>
<svg xmlns="http://www.w3.org/2000/svg" xmlns:xlink="http://www.w3.org/1999/xlink" viewBox="0 0 23 23" width="23px" height="23px">
<g id="surface140121608">
<rect x="0" y="0" width="23" height="23" style="fill:rgb(48.235294%,48.235294%,49.019608%);fill-opacity:1;stroke:none;"/>
<path style=" stroke:none;fill-rule:nonzero;fill:rgb(100%,100%,100%);fill-opacity:1;" d="M 11.5 2.300781 C 6.417969 2.300781 2.300781 6.417969 2.300781 11.5 C 2.300781 16.582031 6.417969 20.699219 11.5 20.699219 C 16.582031 20.699219 20.699219 16.582031 20.699219 11.5 C 20.699219 6.417969 16.582031 2.300781 11.5 2.300781 Z M 14.707031 8.433594 L 13.378906 8.433594 C 12.554688 8.433594 12.265625 8.867188 12.265625 9.75 L 12.265625 10.734375 L 14.683594 10.734375 L 14.355469 13.035156 L 12.265625 13.035156 L 12.265625 19.128906 C 12.015625 19.152344 11.757812 19.167969 11.5 19.167969 C 10.976562 19.167969 10.460938 19.113281 9.964844 19.011719 L 9.964844 13.035156 L 7.667969 13.035156 L 7.667969 10.734375 L 9.964844 10.734375 L 9.964844 9.5 C 9.964844 7.160156 11.105469 6.132812 13.050781 6.132812 C 13.980469 6.132812 14.472656 6.203125 14.707031 6.234375 Z M 14.707031 8.433594 "/>
</g>
</svg>
