<?xml version="1.0" encoding="UTF-8"?>
<svg xmlns="http://www.w3.org/2000/svg" xmlns:xlink="http://www.w3.org/1999/xlink" viewBox="0 0 23 23" width="23px" height="23px">
<g id="surface140291031">
<rect x="0" y="0" width="23" height="23" style="fill:rgb(48.235294%,48.235294%,49.019608%);fill-opacity:1;stroke:none;"/>
<path style=" stroke:none;fill-rule:nonzero;fill:rgb(100%,100%,100%);fill-opacity:1;" d="M 11.5 2.300781 C 6.417969 2.300781 2.300781 6.417969 2.300781 11.5 C 2.300781 15.8125 5.269531 19.417969 9.269531 20.417969 C 9.226562 20.292969 9.199219 20.148438 9.199219 19.96875 L 9.199219 18.398438 C 8.828125 18.398438 8.199219 18.398438 8.042969 18.398438 C 7.414062 18.398438 6.855469 18.125 6.582031 17.625 C 6.28125 17.066406 6.230469 16.210938 5.484375 15.6875 C 5.261719 15.511719 5.429688 15.3125 5.6875 15.339844 C 6.15625 15.472656 6.546875 15.796875 6.917969 16.277344 C 7.28125 16.757812 7.453125 16.867188 8.140625 16.867188 C 8.472656 16.867188 8.96875 16.847656 9.4375 16.773438 C 9.6875 16.136719 10.121094 15.546875 10.652344 15.269531 C 7.589844 14.957031 6.128906 13.429688 6.128906 11.363281 C 6.128906 10.472656 6.507812 9.609375 7.152344 8.882812 C 6.941406 8.164062 6.675781 6.691406 7.234375 6.132812 C 8.613281 6.132812 9.445312 7.027344 9.644531 7.269531 C 10.332031 7.035156 11.085938 6.898438 11.878906 6.898438 C 12.671875 6.898438 13.429688 7.035156 14.121094 7.269531 C 14.316406 7.03125 15.152344 6.132812 16.53125 6.132812 C 17.09375 6.695312 16.824219 8.167969 16.613281 8.890625 C 17.253906 9.613281 17.628906 10.472656 17.628906 11.363281 C 17.628906 13.429688 16.167969 14.953125 13.109375 15.269531 C 13.953125 15.710938 14.566406 16.941406 14.566406 17.875 L 14.566406 19.96875 C 14.566406 20.050781 14.550781 20.105469 14.539062 20.175781 C 18.125 18.917969 20.699219 15.515625 20.699219 11.5 C 20.699219 6.417969 16.582031 2.300781 11.5 2.300781 Z M 11.5 2.300781 "/>
</g>
</svg>
