<?xml version="1.0" encoding="UTF-8"?>
<svg xmlns="http://www.w3.org/2000/svg" xmlns:xlink="http://www.w3.org/1999/xlink" viewBox="0 0 23 23" width="23px" height="23px">
<g id="surface140299408">
<rect x="0" y="0" width="23" height="23" style="fill:rgb(48.235294%,48.235294%,49.019608%);fill-opacity:1;stroke:none;"/>
<path style=" stroke:none;fill-rule:nonzero;fill:rgb(100%,100%,100%);fill-opacity:1;" d="M 7.664062 2.300781 C 4.707031 2.300781 2.300781 4.707031 2.300781 7.667969 L 2.300781 15.335938 C 2.300781 18.292969 4.707031 20.699219 7.667969 20.699219 L 15.335938 20.699219 C 18.292969 20.699219 20.699219 18.292969 20.699219 15.332031 L 20.699219 7.664062 C 20.699219 4.707031 18.292969 2.300781 15.332031 2.300781 Z M 16.867188 5.367188 C 17.289062 5.367188 17.632812 5.710938 17.632812 6.132812 C 17.632812 6.554688 17.289062 6.898438 16.867188 6.898438 C 16.445312 6.898438 16.101562 6.554688 16.101562 6.132812 C 16.101562 5.710938 16.445312 5.367188 16.867188 5.367188 Z M 11.5 6.898438 C 14.035156 6.898438 16.101562 8.964844 16.101562 11.5 C 16.101562 14.035156 14.035156 16.101562 11.5 16.101562 C 8.964844 16.101562 6.898438 14.035156 6.898438 11.5 C 6.898438 8.964844 8.964844 6.898438 11.5 6.898438 Z M 11.5 8.433594 C 9.804688 8.433594 8.433594 9.804688 8.433594 11.5 C 8.433594 13.195312 9.804688 14.566406 11.5 14.566406 C 13.195312 14.566406 14.566406 13.195312 14.566406 11.5 C 14.566406 9.804688 13.195312 8.433594 11.5 8.433594 Z M 11.5 8.433594 "/>
</g>
</svg>
