<?xml version="1.0" encoding="UTF-8"?>
<svg xmlns="http://www.w3.org/2000/svg" xmlns:xlink="http://www.w3.org/1999/xlink" viewBox="0 0 23 23" width="23px" height="23px">
<g id="surface140007221">
<rect x="0" y="0" width="23" height="23" style="fill:rgb(48.235294%,48.235294%,49.019608%);fill-opacity:1;stroke:none;"/>
<path style=" stroke:none;fill-rule:nonzero;fill:rgb(100%,100%,100%);fill-opacity:1;" d="M 15.332031 2.875 C 12.730469 2.875 10.617188 4.976562 10.5625 7.566406 C 8.261719 7.292969 6.761719 6.429688 5.84375 5.582031 C 4.824219 4.644531 4.5 3.808594 4.5 3.808594 C 4.40625 3.566406 4.1875 3.394531 3.929688 3.359375 C 3.671875 3.328125 3.414062 3.433594 3.257812 3.640625 C 3.257812 3.640625 2.394531 4.792969 2.394531 6.46875 C 2.394531 7.425781 2.699219 8.136719 3.058594 8.738281 C 3.046875 8.730469 2.957031 8.699219 2.957031 8.699219 C 2.722656 8.585938 2.445312 8.601562 2.230469 8.75 C 2.015625 8.898438 1.894531 9.148438 1.917969 9.410156 C 1.917969 9.410156 2.195312 11.429688 4.097656 12.910156 L 3.898438 12.960938 C 3.679688 13.011719 3.5 13.167969 3.410156 13.375 C 3.324219 13.582031 3.335938 13.816406 3.449219 14.011719 C 3.449219 14.011719 3.769531 14.558594 4.445312 15.132812 C 4.847656 15.472656 5.433594 15.824219 6.128906 16.148438 C 5.277344 16.460938 4.007812 16.769531 2.15625 16.769531 C 1.875 16.769531 1.617188 16.9375 1.5 17.191406 C 1.386719 17.449219 1.429688 17.75 1.617188 17.964844 C 1.617188 17.964844 2.164062 18.566406 3.25 19.09375 C 4.335938 19.621094 6.007812 20.125 8.386719 20.125 C 12.5625 20.125 15.566406 18.121094 17.4375 15.582031 C 19.3125 13.039062 20.125 9.996094 20.125 7.667969 C 20.125 7.519531 20.117188 7.375 20.101562 7.230469 C 21.113281 6.253906 21.492188 5.519531 21.511719 5.484375 C 21.601562 5.300781 21.570312 5.082031 21.429688 4.9375 C 21.285156 4.792969 21.070312 4.75 20.882812 4.835938 L 20.804688 4.871094 C 20.738281 4.902344 20.671875 4.933594 20.605469 4.964844 C 20.800781 4.652344 20.953125 4.320312 21.0625 3.976562 C 21.121094 3.785156 21.054688 3.578125 20.898438 3.457031 C 20.742188 3.332031 20.523438 3.320312 20.355469 3.421875 C 19.769531 3.78125 19.207031 4.027344 18.625 4.195312 C 17.765625 3.378906 16.605469 2.875 15.332031 2.875 Z M 15.332031 4.3125 C 17.195312 4.3125 18.6875 5.804688 18.6875 7.667969 C 18.6875 9.648438 17.941406 12.476562 16.28125 14.726562 C 14.621094 16.976562 12.113281 18.6875 8.386719 18.6875 C 6.582031 18.6875 5.382812 18.359375 4.480469 18.007812 C 5.425781 17.863281 6.234375 17.667969 6.816406 17.441406 C 7.828125 17.050781 8.375 16.597656 8.375 16.597656 C 8.578125 16.421875 8.667969 16.148438 8.605469 15.886719 C 8.542969 15.625 8.339844 15.421875 8.082031 15.355469 C 6.777344 15.027344 5.9375 14.5 5.414062 14.0625 L 6.164062 13.875 C 6.46875 13.796875 6.6875 13.535156 6.707031 13.222656 C 6.726562 12.90625 6.539062 12.617188 6.246094 12.507812 C 4.691406 11.90625 4.039062 11.0625 3.707031 10.355469 C 4.113281 10.4375 4.492188 10.542969 5.03125 10.542969 C 5.363281 10.542969 5.652344 10.3125 5.730469 9.988281 C 5.808594 9.664062 5.648438 9.328125 5.351562 9.179688 C 5.351562 9.179688 3.832031 8.480469 3.832031 6.46875 C 3.832031 6.109375 3.933594 5.878906 4.007812 5.605469 C 4.257812 5.941406 4.464844 6.265625 4.867188 6.640625 C 6.101562 7.777344 8.140625 8.9375 11.222656 9.101562 C 11.417969 9.113281 11.613281 9.042969 11.753906 8.90625 C 11.898438 8.769531 11.980469 8.582031 11.980469 8.386719 L 11.980469 7.667969 C 11.980469 5.804688 13.472656 4.3125 15.332031 4.3125 Z M 15.332031 4.3125 "/>
</g>
</svg>
