<?xml version="1.0" encoding="UTF-8"?>
<svg xmlns="http://www.w3.org/2000/svg" xmlns:xlink="http://www.w3.org/1999/xlink" viewBox="0 0 23 23" width="23px" height="23px">
<g id="surface140027297">
<rect x="0" y="0" width="23" height="23" style="fill:rgb(48.235294%,48.235294%,49.019608%);fill-opacity:1;stroke:none;"/>
<path style=" stroke:none;fill-rule:nonzero;fill:rgb(100%,100%,100%);fill-opacity:1;" d="M 11.5 2.875 C 8.570312 2.875 5.976562 3.179688 4.398438 3.414062 C 3.105469 3.605469 2.078125 4.617188 1.839844 5.914062 C 1.640625 7.046875 1.4375 8.703125 1.4375 10.78125 C 1.4375 12.859375 1.640625 14.515625 1.839844 15.648438 C 2.078125 16.945312 3.105469 17.953125 4.398438 18.148438 C 5.980469 18.382812 8.585938 18.6875 11.5 18.6875 C 14.414062 18.6875 17.015625 18.382812 18.597656 18.148438 L 18.601562 18.148438 C 19.894531 17.957031 20.921875 16.945312 21.15625 15.648438 C 21.359375 14.507812 21.5625 12.851562 21.5625 10.78125 C 21.5625 8.703125 21.359375 7.046875 21.152344 5.914062 C 20.921875 4.617188 19.894531 3.605469 18.601562 3.414062 C 17.023438 3.179688 14.429688 2.875 11.5 2.875 Z M 11.5 4.3125 C 14.328125 4.3125 16.863281 4.605469 18.390625 4.835938 C 19.0625 4.9375 19.609375 5.464844 19.738281 6.164062 C 19.929688 7.226562 20.125 8.800781 20.125 10.78125 C 20.125 12.761719 19.929688 14.335938 19.742188 15.390625 C 19.613281 16.097656 19.070312 16.625 18.390625 16.726562 C 16.851562 16.953125 14.3125 17.25 11.5 17.25 C 8.6875 17.25 6.144531 16.953125 4.609375 16.726562 C 3.9375 16.625 3.386719 16.097656 3.257812 15.390625 C 3.070312 14.328125 2.875 12.761719 2.875 10.78125 C 2.875 8.792969 3.070312 7.226562 3.257812 6.164062 C 3.386719 5.464844 3.929688 4.9375 4.605469 4.839844 L 4.609375 4.839844 C 6.136719 4.609375 8.671875 4.3125 11.5 4.3125 Z M 8.625 7.1875 L 8.625 14.375 L 15.8125 10.78125 Z M 8.625 7.1875 "/>
</g>
</svg>
